<svg width="20" height="18" viewBox="0 0 20 18" xmlns="http://www.w3.org/2000/svg">
<path d="M9.99883 13.2003C11.7661 13.2003 13.1988 11.7676 13.1988 10.0003C13.1988 8.23298 11.7661 6.80029 9.99883 6.80029C8.23152 6.80029 6.79883 8.23298 6.79883 10.0003C6.79883 11.7676 8.23152 13.2003 9.99883 13.2003Z" />
<path d="M7 0L5.17 2H2C0.9 2 0 2.9 0 4V16C0 17.1 0.9 18 2 18H18C19.1 18 20 17.1 20 16V4C20 2.9 19.1 2 18 2H14.83L13 0H7ZM10 15C7.24 15 5 12.76 5 10C5 7.24 7.24 5 10 5C12.76 5 15 7.24 15 10C15 12.76 12.76 15 10 15Z" />
</svg>
