<svg width="14" height="14" viewBox="0 0 14 14" fill="none" xmlns="http://www.w3.org/2000/svg">
    <circle cx="7" cy="7" r="7" fill="white"/>
    <path d="M6.78738 0C3.03396 0 0 3.129 0 7C0 10.871 3.03396 14 6.78738 14C10.5408 14 13.5748 10.871 13.5748 7C13.5748 3.129 10.5408 0 6.78738 0ZM10.1811 9.513L9.22405 10.5L6.78738 7.987L4.35071 10.5L3.39369 9.513L5.83036 7L3.39369 4.487L4.35071 3.5L6.78738 6.013L9.22405 3.5L10.1811 4.487L7.7444 7L10.1811 9.513Z" fill="#FF6F6F"/>
    <path d="M6.78738 0C3.03396 0 0 3.129 0 7C0 10.871 3.03396 14 6.78738 14C10.5408 14 13.5748 10.871 13.5748 7C13.5748 3.129 10.5408 0 6.78738 0ZM10.1811 9.513L9.22405 10.5L6.78738 7.987L4.35071 10.5L3.39369 9.513L5.83036 7L3.39369 4.487L4.35071 3.5L6.78738 6.013L9.22405 3.5L10.1811 4.487L7.7444 7L10.1811 9.513Z" fill="#FF6F6F"/>
</svg>
