<svg xmlns="http://www.w3.org/2000/svg" width="20" height="20" viewBox="0 0 20 20" >
    <path d="M14.6667 13.6077C14.0756 13.6077 13.5467 13.8338 13.1422 14.1878L7.59667 11.0613C7.63556 10.888 7.66667 10.7147 7.66667 10.5339C7.66667 10.3531 7.63556 10.1798 7.59667 10.0065L13.08 6.9101C13.5 7.28679 14.0522 7.52034 14.6667 7.52034C15.2855 7.52034 15.879 7.28222 16.3166 6.85835C16.7542 6.43449 17 5.85961 17 5.26017C17 4.66074 16.7542 4.08585 16.3166 3.66199C15.879 3.23812 15.2855 3 14.6667 3C14.0478 3 13.4543 3.23812 13.0168 3.66199C12.5792 4.08585 12.3333 4.66074 12.3333 5.26017C12.3333 5.44098 12.3644 5.61426 12.4033 5.78754L6.92 8.88398C6.5 8.50728 5.94778 8.27373 5.33333 8.27373C4.71449 8.27373 4.121 8.51186 3.68342 8.93572C3.24583 9.35958 3 9.93447 3 10.5339C3 11.1333 3.24583 11.7082 3.68342 12.1321C4.121 12.5559 4.71449 12.7941 5.33333 12.7941C5.94778 12.7941 6.5 12.5605 6.92 12.1838L12.4578 15.3104C12.4189 15.4686 12.3956 15.6344 12.3956 15.8076C12.3956 17.0206 13.4144 18 14.6667 18C15.9189 18 16.9378 17.0206 16.9378 15.8076C16.9378 15.2242 16.6985 14.6646 16.2726 14.2521C15.8467 13.8395 15.269 13.6077 14.6667 13.6077Z" />
</svg>
